<svg width="186" height="103" fill="none" xmlns="http://www.w3.org/2000/svg"><rect x="64.418" y="14.377" width="57.873" height="54.855" rx="1.314" fill="#E3E3E3"/><rect x="67.98" y="27.536" width="51.047" height="12.574" rx="1.314" fill="#fff"/><mask id="a" mask-type="alpha" maskUnits="userSpaceOnUse" x="67" y="27" width="53" height="14"><rect x="67.98" y="27.536" width="51.047" height="12.574" rx="1.314" fill="#fff"/></mask><g mask="url(#a)"><path fill-rule="evenodd" clip-rule="evenodd" d="M70.651 32.58c0-.363.294-.657.657-.657h9.073c.363 0 .657.294.657.657v2.487a.657.657 0 0 1-.656.657h-9.074a.657.657 0 0 1-.657-.657V32.58Z" fill="#E4E4E4"/></g><rect x="67.98" y="43.035" width="51.047" height="22.809" rx="1.314" fill="#fff"/><mask id="b" mask-type="alpha" maskUnits="userSpaceOnUse" x="67" y="43" width="53" height="23"><rect x="67.98" y="43.035" width="51.047" height="22.809" rx="1.314" fill="#fff"/></mask><g mask="url(#b)" fill="#E4E4E4"><rect x="70.651" y="47.421" width="38.582" height="3.801" rx=".657"/><rect x="70.651" y="54.147" width="14.246" height="3.801" rx=".657"/></g><path fill-rule="evenodd" clip-rule="evenodd" d="M68.277 20.006c0-.363.294-.657.657-.657h21.835c.363 0 .657.294.657.657v3.072a.657.657 0 0 1-.657.657H68.934a.657.657 0 0 1-.657-.657v-3.072Z" fill="#fff"/><rect x="127.93" y="14.377" width="57.873" height="84.217" rx="1.314" fill="#E3E3E3"/><rect x="131.492" y="27.829" width="51.047" height="35.383" rx="1.314" fill="#fff"/><mask id="c" mask-type="alpha" maskUnits="userSpaceOnUse" x="131" y="27" width="52" height="37"><rect x="131.492" y="27.829" width="51.047" height="35.383" rx="1.314" fill="#fff"/></mask><g mask="url(#c)"><path fill="#F1F1F1" d="M131.51 26.693h55.386v27.061H131.51z"/><path fill-rule="evenodd" clip-rule="evenodd" d="M134.163 57.143c0-.363.294-.657.657-.657h10.854c.363 0 .657.294.657.657v2.487a.657.657 0 0 1-.657.657H134.82a.657.657 0 0 1-.657-.657v-2.487Z" fill="#E4E4E4"/></g><rect x="131.195" y="67.013" width="51.047" height="11.404" rx="1.314" fill="#fff"/><mask id="d" mask-type="alpha" maskUnits="userSpaceOnUse" x="131" y="67" width="52" height="12"><rect x="131.195" y="67.013" width="51.047" height="11.404" rx="1.314" fill="#fff"/></mask><rect x="133.866" y="70.814" width="19.291" height="3.801" rx=".657" fill="#E4E4E4"/><rect x="131.195" y="81.926" width="51.047" height="11.404" rx="1.314" fill="#fff"/><mask id="e" mask-type="alpha" maskUnits="userSpaceOnUse" x="131" y="81" width="52" height="13"><rect x="131.195" y="81.926" width="51.047" height="11.404" rx="1.314" fill="#fff"/></mask><rect x="133.866" y="85.728" width="13.355" height="3.801" rx=".657" fill="#E4E4E4"/><path fill-rule="evenodd" clip-rule="evenodd" d="M131.788 20.006c0-.363.294-.657.657-.657h13.822c.363 0 .657.294.657.657v3.072a.657.657 0 0 1-.657.657h-13.822a.657.657 0 0 1-.657-.657v-3.072Z" fill="#fff"/><rect x=".907" y="14.377" width="57.873" height="85.971" rx="1.314" fill="#E3E3E3"/><rect x="4.468" y="27.829" width="51.047" height="12.282" rx="1.314" fill="#fff"/><rect x="7.139" y="31.923" width="25.82" height="3.801" rx=".657" fill="#E4E4E4"/><rect x="4.468" y="43.912" width="51.047" height="12.282" rx="1.314" fill="#fff"/><rect x="7.139" y="48.006" width="19.588" height="3.801" rx=".657" fill="#E4E4E4"/><rect x="6.842" y="87.775" width="13.355" height="3.801" rx=".657" fill="#E4E4E4"/><rect x="4.397" y="59.691" width="51.047" height="35.383" rx="1.314" fill="#fff"/><mask id="f" mask-type="alpha" maskUnits="userSpaceOnUse" x="4" y="59" width="52" height="37"><rect x="4.397" y="59.691" width="51.047" height="35.383" rx="1.314" fill="#fff"/></mask><g mask="url(#f)"><path fill="#F1F1F1" d="M4.415 58.555h55.386v27.061H4.415z"/><rect x="7.068" y="88.348" width="12.168" height="3.801" rx=".657" fill="#E4E4E4"/></g><rect x="4.765" y="19.349" width="14.246" height="4.386" rx=".657" fill="#fff"/><path fill-rule="evenodd" clip-rule="evenodd" d="M89.588.102c-.754 0-1.365.608-1.365 1.357V9.6c0 .75.612 1.357 1.365 1.357h8.188c.754 0 1.365-.608 1.365-1.357V1.459c0-.75-.611-1.357-1.365-1.357h-8.188Zm5.459 1.411a.653.653 0 0 0-.655.652v3.473c0 .36.293.652.655.652h2.02a.653.653 0 0 0 .655-.652V2.165a.653.653 0 0 0-.655-.652h-2.02Zm-4.75 0a.653.653 0 0 0-.654.652v6.187c0 .36.293.652.655.652h2.02a.653.653 0 0 0 .655-.652V2.165a.653.653 0 0 0-.655-.652h-2.02Z" fill="#fff"/></svg>